<svg width="20" height="20" viewBox="0 0 20 20" fill="none" xmlns="http://www.w3.org/2000/svg">
<path fill-rule="evenodd" clip-rule="evenodd" d="M17.5002 3.125C17.5002 2.95924 17.4343 2.80027 17.3171 2.68306C17.1999 2.56585 17.0409 2.5 16.8752 2.5H9.37518C9.20942 2.5 9.05045 2.56585 8.93324 2.68306C8.81603 2.80027 8.75018 2.95924 8.75018 3.125C8.75018 3.29076 8.81603 3.44973 8.93324 3.56694C9.05045 3.68415 9.20942 3.75 9.37518 3.75H15.3664L2.68268 16.4325C2.62457 16.4906 2.57847 16.5596 2.54703 16.6355C2.51558 16.7114 2.49939 16.7928 2.49939 16.875C2.49939 16.9572 2.51558 17.0386 2.54703 17.1145C2.57847 17.1904 2.62457 17.2594 2.68268 17.3175C2.74079 17.3756 2.80978 17.4217 2.8857 17.4532C2.96162 17.4846 3.043 17.5008 3.12518 17.5008C3.20736 17.5008 3.28873 17.4846 3.36466 17.4532C3.44058 17.4217 3.50957 17.3756 3.56768 17.3175L16.2502 4.63375V10.625C16.2502 10.7908 16.316 10.9497 16.4332 11.0669C16.5504 11.1842 16.7094 11.25 16.8752 11.25C17.0409 11.25 17.1999 11.1842 17.3171 11.0669C17.4343 10.9497 17.5002 10.7908 17.5002 10.625V3.125Z" fill="#0A142F"/>
</svg>
