<svg width="197" height="191" viewBox="0 0 197 191" fill="none" xmlns="http://www.w3.org/2000/svg">
<path d="M60.1012 1.41214C60.7299 1.14328 61.362 0.880795 61.9974 0.624756H135.418C136.053 0.880795 136.685 1.14328 137.314 1.41214H60.1012Z" fill="#FFC93E"/>
<path d="M45.3271 9.28596C45.7367 9.02052 46.1483 8.75805 46.5621 8.49857H150.853C151.267 8.75805 151.679 9.02052 152.088 9.28596H45.3271Z" fill="#FFC93E"/>
<path d="M34.7902 17.1598C35.0987 16.8954 35.4089 16.633 35.7208 16.3724H161.694C162.006 16.633 162.316 16.8954 162.625 17.1598H34.7902Z" fill="#FFC93E"/>
<path d="M26.6016 25.0336C26.8462 24.7698 27.0922 24.5073 27.3396 24.2462H170.076C170.323 24.5073 170.569 24.7698 170.814 25.0336H26.6016Z" fill="#FFC93E"/>
<path d="M20.0269 32.9074C20.2247 32.6439 20.4237 32.3815 20.624 32.12H176.791C176.991 32.3815 177.191 32.6439 177.388 32.9074H20.0269Z" fill="#FFC93E"/>
<path d="M14.6907 40.7812C14.8511 40.518 15.0128 40.2555 15.1756 39.9938H182.24C182.402 40.2555 182.564 40.518 182.725 40.7812H14.6907Z" fill="#FFC93E"/>
<path d="M10.3722 48.655C10.5012 48.3919 10.6314 48.1295 10.7627 47.8677H186.653C186.784 48.1295 186.914 48.3919 187.043 48.655H10.3722Z" fill="#FFC93E"/>
<path d="M6.93098 56.5289C7.03242 56.2659 7.13495 56.0034 7.23858 55.7415H190.177C190.28 56.0034 190.383 56.2659 190.484 56.5289H6.93098Z" fill="#FFC93E"/>
<path d="M4.27281 64.4027C4.34928 64.1398 4.42682 63.8773 4.50541 63.6153H192.91C192.988 63.8773 193.066 64.1398 193.142 64.4027H4.27281Z" fill="#FFC93E"/>
<path d="M2.33296 72.2765C2.38627 72.0137 2.44062 71.7512 2.49602 71.4891H194.919C194.975 71.7512 195.029 72.0137 195.082 72.2765H2.33296Z" fill="#FFC93E"/>
<path d="M1.06655 80.1503C1.09795 79.8875 1.13038 79.6251 1.16385 79.3629H196.251C196.285 79.6251 196.317 79.8875 196.349 80.1503H1.06655Z" fill="#FFC93E"/>
<path d="M0.443 88.0241C0.453327 87.7614 0.464682 87.4989 0.477063 87.2367H196.938C196.951 87.4989 196.962 87.7614 196.972 88.0241H0.443Z" fill="#FFC93E"/>
<path d="M0.443 95.8979C0.432694 95.6358 0.423413 95.3733 0.415161 95.1106H197C196.992 95.3733 196.983 95.6358 196.972 95.8979H0.443Z" fill="#FFC93E"/>
<path d="M1.06655 103.772C1.03522 103.51 1.00493 103.247 0.975667 102.984H196.44C196.41 103.247 196.38 103.51 196.349 103.772H1.06655Z" fill="#FFC93E"/>
<path d="M2.33296 111.646C2.2798 111.383 2.22768 111.121 2.17661 110.858H195.239C195.188 111.121 195.135 111.383 195.082 111.646H2.33296Z" fill="#FFC93E"/>
<path d="M4.27281 119.519C4.1966 119.257 4.12146 118.995 4.04737 118.732H193.368C193.294 118.995 193.219 119.257 193.142 119.519H4.27281Z" fill="#FFC93E"/>
<path d="M6.93098 127.393C6.82995 127.131 6.73002 126.869 6.63118 126.606H190.784C190.685 126.869 190.585 127.131 190.484 127.393H6.93098Z" fill="#FFC93E"/>
<path d="M10.3722 135.267C10.2438 135.005 10.1166 134.743 9.99046 134.48H187.425C187.299 134.743 187.171 135.005 187.043 135.267H10.3722Z" fill="#FFC93E"/>
<path d="M14.6907 143.141C14.5312 142.879 14.3729 142.617 14.2158 142.353H183.199C183.042 142.617 182.884 142.879 182.725 143.141H14.6907Z" fill="#FFC93E"/>
<path d="M20.0269 151.015C19.8307 150.753 19.6358 150.491 19.4421 150.227H177.973C177.779 150.491 177.585 150.753 177.388 151.015H20.0269Z" fill="#FFC93E"/>
<path d="M26.6016 158.888C26.3595 158.627 26.1188 158.365 25.8795 158.101H171.536C171.296 158.365 171.056 158.627 170.814 158.888H26.6016Z" fill="#FFC93E"/>
<path d="M34.7902 166.762C34.4859 166.502 34.1833 166.239 33.8823 165.975H163.533C163.232 166.239 162.929 166.502 162.625 166.762H34.7902Z" fill="#FFC93E"/>
<path d="M45.3271 174.636C44.9264 174.376 44.5278 174.114 44.1312 173.849H153.284C152.887 174.114 152.489 174.376 152.088 174.636H45.3271Z" fill="#FFC93E"/>
<path d="M60.1012 182.51C59.5009 182.253 58.9037 181.991 58.3097 181.723H139.106C138.512 181.991 137.914 182.253 137.314 182.51H60.1012Z" fill="#FFC93E"/>
<path d="M111.206 189.596C107.113 190.116 102.942 190.384 98.7076 190.384C94.4736 190.384 90.3021 190.116 86.209 189.596H111.206Z" fill="#FFC93E"/>
</svg>
